<svg width="1230" height="416" viewBox="0 0 1230 416" fill="none" xmlns="http://www.w3.org/2000/svg">
<g clip-path="url(#clip0_8_887)">
<rect width="1230" height="416" fill="#121111" fill-opacity="0.01"/>
<path d="M409 174.424C409 178.013 406.09 180.924 402.5 180.924C398.91 180.924 396 178.013 396 174.424C396 170.834 398.91 167.924 402.5 167.924C406.09 167.924 409 170.834 409 174.424Z" fill="#00FFFF"/>
<path d="M255 175C255 178.866 251.866 182 248 182C244.134 182 241 178.866 241 175C241 171.134 244.134 168 248 168C251.866 168 255 171.134 255 175Z" fill="#00FFFF"/>
<path d="M334 74.5C334 79.1945 330.194 83 325.5 83C320.806 83 317 79.1945 317 74.5C317 69.8056 320.806 66 325.5 66C330.194 66 334 69.8056 334 74.5Z" fill="#00FFFF"/>
<circle cx="333.5" cy="287.5" r="3.5" fill="#00FFFF"/>
<path d="M336.5 289L344.5 294.5M334 284L338.5 268L340 268.5L335 284.5" stroke="#00FFFF"/>
<circle cx="339.5" cy="266.5" r="2.5" fill="#00FFFF"/>
<path d="M342 266.5L346 263L350.5 267L352.5 272.5L353.5 269.5L352 265.5L346 260L353.5 247L350.5 245L336.5 259.5L331.5 256L350.5 242.5L342 238.5L345.5 234L344 233L340 237.8M340 237.8L326.5 254L329.5 233L339 237.5L340 237.8Z" stroke="#00FFFF"/>
<circle cx="330" cy="231" r="3" fill="#00FFFF"/>
<path d="M332.5 230L345 218.971M349.5 215V227.5L354 238L358 236L353.5 220L359 218L353.5 215H349.5ZM349.5 215L345 218.971M345 218.971L335 195.5L337.5 193.5M337.5 193.5L351.5 207.5H356V196H360.5H349.5L356 192.5L356.5 175L337.5 193.5Z" stroke="#00FFFF"/>
<circle cx="347.5" cy="194.5" r="3.5" fill="#00FFFF"/>
<circle cx="333" cy="195" r="3" fill="#00FFFF"/>
<path d="M335 192L344.167 181M344.167 181L343.708 176M344.167 181L349.208 176M343.708 176H346.458M343.708 176L342.333 163M349.208 176L357 174L350.583 166L346.458 176M349.208 176H346.458" stroke="#00FFFF"/>
<circle cx="341.5" cy="160.5" r="3.5" fill="#00FFFF"/>
<path d="M351 155.5L344 160V161L349.5 165.5L350.175 161M351 155.5L350.175 161M351 155.5L361 150M357 174L362.5 161H350.175M361 150L365 154.5M361 150L367 145.5L368.5 144.5M361 150L358 137.5L357 134.5L359 130.5M359 130.5V120.5L364.5 127.5L359 130.5ZM359 130.5L368.5 144.5M368.5 144.5L374.5 141L378 144.5L375 147" stroke="#00FFFF"/>
<circle cx="373" cy="148" r="3" fill="#00FFFF"/>
<path d="M371 150L365 154.5" stroke="#00FFFF"/>
<circle cx="364.5" cy="157.5" r="4.5" fill="#00FFFF"/>
<circle cx="357" cy="173" r="2" fill="#00FFFF"/>
<path d="M358.5 172.5L361.5 170H371M375 170.5L396 172.5L397 171.5L380.5 160.5M380.5 160.5L379 157M380.5 160.5H378.5M374.5 150.5L379 157M379 157L378.5 160.5M368.5 159.5L378.5 160.5M366.5 161.5L372 168" stroke="#00FFFF"/>
<circle cx="373.5" cy="169.5" r="2.5" fill="#00FFFF"/>
<circle cx="378.5" cy="158.5" r="2.5" fill="#00FFFF"/>
<circle cx="355" cy="133" r="3" fill="#00FFFF"/>
<path d="M344.5 107.5L354.5 130.5H348L333 117V114M344.5 107.5L348 106.5M344.5 107.5L329.5 82V112L333 114M344.5 107.5L333 114M331 117L340 157.5H342.5L353 136" stroke="#00FFFF"/>
<circle cx="330.5" cy="114.5" r="2.5" fill="#00FFFF"/>
<path d="M352.5 133.5L322 137L330 117L328 115.5L303.5 130L300.5 129L310.5 108.5L328 113.5L314 93.5L310.5 103L300.5 106" stroke="#00FFFF"/>
<circle cx="310" cy="106" r="3" fill="#00FFFF"/>
<path d="M300.5 106V129" stroke="#00FFFF"/>
<circle cx="317.5" cy="143.5" r="2.5" fill="#00FFFF"/>
<path d="M319.5 141.5L321.5 137L302.5 133M319.5 145.5L338 159.5M317 145.5L311.5 173L316 175L339 163.5" stroke="#00FFFF"/>
<circle cx="300.5" cy="131.5" r="2.5" fill="#00FFFF"/>
<path d="M298.5 131L284 128L290 145L299.5 133.5L302.5 145M302.5 145L315 143.5M302.5 145L300.78 160L315 159M302.5 145L292.5 148.5L310.5 173.5" stroke="#00FFFF"/>
<circle cx="290.5" cy="148.5" r="3.5" fill="#00FFFF"/>
<circle cx="312" cy="176" r="4" fill="#00FFFF"/>
<path d="M291.5 152L297.5 168.5M297.5 168.5L271.5 160.5L287 149H268M297.5 168.5L308.5 175M275.5 139L288 146" stroke="#00FFFF"/>
<circle cx="268.5" cy="160.5" r="2.5" fill="#00FFFF"/>
<path d="M254.5 173L267 162.5L278.5 175M343 177H315.5L335 189" stroke="#00FFFF"/>
<path d="M335 189.5L336.5 191L335 192.5L336.5 194.5" stroke="#00FFFF"/>
<path d="M315 158.5L338.5 161.5" stroke="#00FFFF"/>
<circle cx="334" cy="188" r="3" fill="#00FFFF"/>
<circle cx="351.5" cy="243.5" r="2.5" fill="#00FFFF"/>
<path d="M259 100L282.5 95.5L295 93L282.5 112.5L270.5 114L240.5 121.5L206 133.5L178.5 147.5L177.5 196V224.5L178.5 245L183.5 269L186.5 280L200.5 311H183.5L167.5 267.5L164 248L162 228.5L162.5 140L193 121.5L229 108L259 100Z" fill="#00B6F3" stroke="#307FB3"/>
<path d="M374.5 97.5L351 93L362 110L363 111.5L393 119L427.5 131L455 145L456 193.5V222L455 242.5L450 266.5L441 294.5L425 321.5L406.5 344L396 354L355.5 379L332.5 387L321 391L318.5 391.5L308.5 387L299 399.5L318.5 408L332.5 404L362.5 393L384.5 381.5L402.5 369L423 349.5L442 325L454 301.5L461 285L466 265L469.5 245.5L471.5 226L471 137.5L440.5 119L404.5 105.5L374.5 97.5Z" fill="#00B6F3" stroke="#307FB3"/>
<path d="M357.5 379.5L336 387L336.328 352.748H345.346L345.5 332H349.5V352.748H359.5V378L357.5 379.5Z" fill="#FF383C"/>
<path d="M396 355.5L373 370L372.5 370.213V283.5H382.5V259H385.5V283.5H396V355.5Z" fill="#FF383C"/>
<path d="M426.5 322.5L410.5 342L409.5 220.5H419.5V185H423.5V220.5H433V311.5L426.5 322.5Z" fill="#FF383C"/>
<path d="M357.5 379.5L336 387L336.328 352.748H345.346L345.5 332H349.5V352.748H359.5V378L357.5 379.5Z" stroke="#307FB3"/>
<path d="M396 355.5L373 370L372.5 370.213V283.5H382.5V259H385.5V283.5H396V355.5Z" stroke="#307FB3"/>
<path d="M426.5 322.5L410.5 342L409.5 220.5H419.5V185H423.5V220.5H433V311.5L426.5 322.5Z" stroke="#307FB3"/>
<path d="M227.5 233V301L207.5 307.667L206.5 308L205 308.5V233H214.5L214 186H217.5V233H227.5Z" fill="#34C759"/>
<path d="M265 258L243.5 287L242.5 288L242 219H251L250.5 198H255.332V219H265V258Z" fill="#34C759"/>
<path d="M206.5 308L207.5 307.667M207.5 307.667L227.5 301V233H217.5V186H214L214.5 233H205V308.5L207.5 307.667ZM243.5 287L265 258V219H255.332V198H250.5L251 219H242L242.5 288L243.5 287Z" stroke="#307FB3"/>
<circle cx="278.5" cy="404.5" r="8.5" fill="#D9D9D9"/>
<path d="M300 379L283.5 398L285.5 400L303 380.5L325 348L329 340.5L337 325L348 298.5L355 276.5L357.5 264L361 245L362.5 233.5L364 211L364.5 177.5L397.5 178V175H361.5L361 190.5L360.5 211L359 233.5L357.5 245L355 263L352 275.5L344 298L332.5 326L321.5 347L300 379Z" fill="#00C0E8"/>
<path d="M384.5 152L399 170.5L401.5 168.5L382 142.5L364 119L346.5 95.5L331.5 76L328.5 78.5L341 95.5L357 117L373.5 138.5L384.5 152Z" fill="#00C0E8"/>
<path d="M304.5 100L321 77.5L319 75.5L317.5 77L300 100L285 119.5L269.5 139L254 161.5L249 169L252 171L263 155L280.5 132L294 113.5L304.5 100Z" fill="#00C0E8"/>
<path d="M289 175H253.5V178H284V191.5V205.5L282 224.5L279.5 237.5L275 249.5L267.5 269.5L260 282L253.5 290.5L243 301.5L228 311L212 319L195.5 323L182.5 323.5V326.5H195L209 323.5L223 318L247.5 302.5L261.5 287L273.5 267.5L283 240.5L286.5 225L288.5 208.5L289 175Z" fill="#00C0E8"/>
<path d="M300 379L283.5 398L285.5 400L303 380.5L325 348L329 340.5L337 325L348 298.5L355 276.5L357.5 264L361 245L362.5 233.5L364 211L364.5 177.5L397.5 178V175H361.5L361 190.5L360.5 211L359 233.5L357.5 245L355 263L352 275.5L344 298L332.5 326L321.5 347L300 379Z" stroke="#00C0E8" stroke-opacity="0.933333"/>
<path d="M384.5 152L399 170.5L401.5 168.5L382 142.5L364 119L346.5 95.5L331.5 76L328.5 78.5L341 95.5L357 117L373.5 138.5L384.5 152Z" stroke="#00C0E8" stroke-opacity="0.933333"/>
<path d="M304.5 100L321 77.5L319 75.5L317.5 77L300 100L285 119.5L269.5 139L254 161.5L249 169L252 171L263 155L280.5 132L294 113.5L304.5 100Z" stroke="#00C0E8" stroke-opacity="0.933333"/>
<path d="M289 175H253.5V178H284V191.5V205.5L282 224.5L279.5 237.5L275 249.5L267.5 269.5L260 282L253.5 290.5L243 301.5L228 311L212 319L195.5 323L182.5 323.5V326.5H195L209 323.5L223 318L247.5 302.5L261.5 287L273.5 267.5L283 240.5L286.5 225L288.5 208.5L289 175Z" stroke="#00C0E8" stroke-opacity="0.933333"/>
<path d="M287 405C287 411.075 282.075 416 276 416C269.925 416 265 411.075 265 405C265 398.925 269.925 394 276 394C282.075 394 287 398.925 287 405Z" fill="#00FFFF"/>
<path d="M186 325C186 330.523 181.523 335 176 335C170.477 335 166 330.523 166 325C166 319.477 170.477 315 176 315C181.523 315 186 319.477 186 325Z" fill="#00FFFF"/>
<circle cx="302.5" cy="363.5" r="3.5" fill="#00FFFF"/>
<circle cx="278.5" cy="377.5" r="3.5" fill="#00FFFF"/>
<circle cx="248.5" cy="384.5" r="7.5" fill="#00FFFF"/>
<path d="M255.5 382L253.5 379L257 376.5L273 362L277.5 357L286 347L294 336L301.5 325L306.5 315.5L312.5 303.5L317.5 293.5L322 284L323 279H326.5L326 284L322.5 292L318 301L312.5 312L307 322.5L301 332L296 339.5L289 348L281 358L276 364L255.5 382Z" fill="#00FFFF" stroke="#00FFFF"/>
<circle cx="325" cy="276" r="5" fill="#00FFFF"/>
<path d="M280 374.5L281.5 376L285.5 372L301 353L311 340.5L320 322.5L329 306L334.5 290L331.5 289L329 296.5L325 306L321.5 313.5L316.5 322.5L312 332L306 342L299.5 350.5L293.5 358.5L286.5 366L280 374.5Z" fill="#00FFFF" stroke="#00FFFF"/>
<circle cx="325" cy="257" r="4" fill="#00FFFF"/>
<path d="M323 254L321.5 255L314 240.5H316.5L323 254Z" stroke="#00FFFF"/>
<path d="M324 239H316.5V236L325 232L326.5 234L324 239Z" stroke="#00FFFF"/>
<circle cx="314.5" cy="188.5" r="2.5" fill="#00FFFF"/>
<circle cx="309" cy="215" r="3" fill="#00FFFF"/>
<circle cx="321" cy="206" r="3" fill="#00FFFF"/>
<circle cx="294" cy="189" r="3" fill="#00FFFF"/>
<path d="M312 188.5L314 191L320.5 203L331.5 198L329.5 228L320.5 209M312 188.5L308.5 212M312 188.5L303.5 187.5M320.5 209L312 213.5L308.5 212M320.5 209L314 233.5L310 218.5L297.75 214.25M308.5 212L303.5 187.5M303.5 187.5L295 186.5L297.5 169L303.5 187.5ZM307.5 213L295 192.5L289.5 198L294 202L297.5 215.5M297.5 215.5L289.5 213.5L297.75 214.25M297.5 215.5L294 245.5L286 230.5L306 215L297.75 214.25" stroke="#00FFFF"/>
<circle cx="314.5" cy="237.5" r="3.5" fill="#00FFFF"/>
<circle cx="283.5" cy="338.5" r="2.5" fill="#00FFFF"/>
<path d="M282.5 336.5L279.5 324.5H301L289 312L300 317.5L301 299.5L305.5 297V298L301.5 300V301L305.5 299V301L302 302.5L302.5 304L309 301M309 301L310 306.5L313 301.5L309 301ZM306 301L313 297V296.5L306 300V299L313 295.5V287L321 284V282.5L313 285.3M311 286V295.5M311 286L314 267.5H315M311 286L312 285.65M316 267.5L313 285.3M316 267.5H315M316 267.5L324.5 261V271.5L337 266.5M313 285.3L312 285.65M312 285.65L315 267.5M315 267.5L313 240.5L308.5 267.5" stroke="#00FFFF"/>
<circle cx="308" cy="269" r="2" fill="#00FFFF"/>
<path d="M307.5 270L302.5 287M296 277.5L301.5 271L311.5 239L297 247H294.5H281.5L291 250.5L277 260L283.5 264.5L292 251.5L293.5 256.5L292 263" stroke="#00FFFF"/>
<circle cx="291.5" cy="263.5" r="1.5" fill="#00FFFF"/>
<path d="M291 263.5L286 269.5" stroke="#00FFFF"/>
<circle cx="285" cy="270" r="2" fill="#00FFFF"/>
<path d="M285.5 273.94L282.5 272.5L277.46 281.5L268.5 297.5L253 314.5L235.5 330L213 342L202 346L187 350V352.5L203 348L214.5 344L237 332L257 315.5L271.5 298L285.5 273.94Z" fill="#00FFFF"/>
<path d="M295 278.5L282.5 272.5L277.46 281.5M285.5 273.94L271.5 298L257 315.5L237 332L214.5 344L203 348L187 352.5V350L202 346L213 342L235.5 330L253 314.5L268.5 297.5L277.46 281.5M271 271L277.46 281.5M277.46 281.5L264 283L265 288.5L251 311.5L239.5 313L238.5 319M296 223.5L310.5 236.5L312 237.5M286 271.5H300L293 257.5L304.5 258.5L303 244L295 237.5L307.5 218L312 235" stroke="#00FFFF"/>
<circle cx="216.5" cy="332.5" r="2.5" fill="#00FFFF"/>
<circle cx="205" cy="333" r="3" fill="#00FFFF"/>
<path d="M204.5 324V329V330" stroke="#00FFFF"/>
<circle cx="238.5" cy="320.5" r="3.5" fill="#00FFFF"/>
<path d="M317 189.5L330.5 194" stroke="#00FFFF"/>
<circle cx="301" cy="290" r="5" fill="#00FFFF"/>
<circle cx="294.5" cy="278.5" r="2.5" fill="#00FFFF"/>
<path d="M278 308L283.5 299L281 298L275.5 305.5L271 312.5L265.5 319L256 328L251 332L237.5 342.5L239.5 346C241.9 344 243.833 342.5 244.5 342L253 335L258 331L265.5 323.5L273.5 315L278 308Z" fill="#00FFFF" stroke="#00FFFF"/>
<circle cx="282.5" cy="297.5" r="2.5" fill="#00FFFF"/>
<circle cx="236" cy="346" r="4" fill="#00FFFF"/>
<ellipse cx="183" cy="350.5" rx="6" ry="5.5" fill="#00FFFF"/>
<path d="M296.5 300.5L299.5 294.5L297 293L292 300.5L285.5 310L277.5 322L267.5 332.5L261 339L255 344.5L241.5 356L227 366L228.5 369L231.5 367.5L244.5 358.5L255 349.5L263.5 341.5L270 334L278 325L279 324L281 322L283.5 319.5L289 312L293.5 306L296.5 300.5Z" fill="#00FFFF" stroke="#00FFFF"/>
<circle cx="226" cy="368" r="3" fill="#00FFFF"/>
<path d="M283 290V295L284 295.5L285 290L293.5 281L292.5 280L283 290Z" fill="#00FFFF"/>
<path d="M299.5 285.5L296.5 280L307.5 270M283 295V290L292.5 280L293.5 281L285 290L284 295.5L283 295Z" stroke="#00FFFF"/>
<path d="M333 230.5H343.5" stroke="#00FFFF"/>
<circle cx="345.5" cy="231.5" r="2.5" fill="#00FFFF"/>
<circle cx="353.5" cy="211.5" r="4.5" fill="#00FFFF"/>
<path d="M579.906 148.24C575.239 145.907 568.986 144.74 561.146 144.74C549.012 144.74 542.946 149.22 542.946 158.18C542.946 162.473 546.726 167 554.286 171.76C560.539 175.773 565.439 178.947 568.986 181.28C572.532 183.613 574.679 185.153 575.426 185.9C582.986 192.527 586.766 200.18 586.766 208.86C586.766 218.567 583.032 226.173 575.566 231.68C569.219 236.347 561.612 238.68 552.746 238.68C543.879 238.68 535.759 237.047 528.386 233.78L530.206 218.24C537.206 222.16 544.906 224.12 553.306 224.12C565.719 224.12 571.926 218.66 571.926 207.74C571.926 203.447 568.146 198.78 560.586 193.74C553.772 189.167 548.592 185.667 545.046 183.24C541.592 180.813 539.726 179.507 539.446 179.32C531.979 172.88 528.246 165.833 528.246 158.18C528.246 149.5 531.606 142.547 538.326 137.32C544.392 132.653 552.046 130.32 561.286 130.32C568.939 130.32 575.986 131.533 582.426 133.96L579.906 148.24ZM642.055 236.02C638.508 237.513 634.495 238.26 630.015 238.26C621.148 238.26 615.408 235.88 612.795 231.12C610.835 227.947 609.855 221.833 609.855 212.78V173.16H597.815V159.3H609.855V142.64L624.975 137.74V159.3H639.815V173.16H624.975V216.7C624.975 222.113 627.448 224.82 632.395 224.82C635.661 224.82 638.508 224.213 640.935 223L642.055 236.02ZM685.914 171.62C679.567 171.62 674.527 174.14 670.794 179.18C667.247 184.127 665.474 190.52 665.474 198.36C665.474 206.2 667.247 212.593 670.794 217.54C674.527 222.58 679.567 225.1 685.914 225.1C692.261 225.1 697.254 222.58 700.894 217.54C704.534 212.687 706.354 206.293 706.354 198.36C706.354 190.52 704.534 184.127 700.894 179.18C697.254 174.14 692.261 171.62 685.914 171.62ZM685.914 158.46C697.487 158.46 706.494 162.613 712.934 170.92C718.721 178.293 721.614 187.44 721.614 198.36C721.614 209.28 718.721 218.427 712.934 225.8C706.494 234.107 697.487 238.26 685.914 238.26C674.247 238.26 665.194 234.107 658.754 225.8C653.061 218.613 650.214 209.467 650.214 198.36C650.214 187.253 653.061 178.107 658.754 170.92C665.194 162.613 674.247 158.46 685.914 158.46ZM790.136 235.32C784.91 237 778.236 237.84 770.116 237.84C758.636 237.84 749.583 233.827 742.956 225.8C736.983 218.613 733.996 209.42 733.996 198.22C733.996 186.74 737.45 177.267 744.356 169.8C751.356 162.427 760.176 158.74 770.816 158.74C777.91 158.74 784.35 159.72 790.136 161.68L789.016 175.26C783.51 173.02 777.77 171.9 771.796 171.9C764.516 171.9 758.823 174.327 754.716 179.18C750.703 183.94 748.696 190.287 748.696 198.22C748.696 205.687 750.75 211.987 754.856 217.12C758.87 222.16 764.19 224.68 770.816 224.68C776.883 224.68 782.95 223.56 789.016 221.32L790.136 235.32ZM869.849 236.02H850.249L820.009 203.68V236.02H805.029V124.58H820.009V183.94L847.029 158.46H866.349L829.389 193.32L869.849 236.02Z" fill="#3498DB"/>
<path d="M960.209 236.58H943.409L898.609 158.32V236.58H883.489V132.14H899.589L945.089 211.66V132.14H960.209V236.58ZM1040.93 203.68H993.748C994.028 210.4 995.848 215.627 999.208 219.36C1002.66 223.373 1007.42 225.38 1013.49 225.38C1021.89 225.38 1029.31 223.56 1035.75 219.92V234.06C1028.28 236.86 1020.72 238.26 1013.07 238.26C1001.03 238.26 992.068 234.433 986.188 226.78C981.054 219.967 978.488 210.447 978.488 198.22C978.488 186.46 981.334 176.893 987.028 169.52C992.721 162.147 1000.37 158.46 1009.99 158.46C1020.72 158.46 1028.75 162.287 1034.07 169.94C1038.64 176.473 1040.93 185.107 1040.93 195.84V203.68ZM1025.67 190.38C1025.67 185.153 1024.31 180.767 1021.61 177.22C1018.81 173.487 1015.12 171.62 1010.55 171.62C1005.88 171.62 1001.91 173.533 998.648 177.36C995.381 181.187 993.748 185.527 993.748 190.38H1025.67ZM1116.94 236.02H1099.72L1082.78 208.3L1065 236.02H1048.2L1074.52 196.12L1050.58 160.42H1068.08L1083.06 184.08L1098.32 160.42H1114.84L1091.32 196.12L1116.94 236.02Z" fill="#00B8D4"/>
<path d="M542.578 319.892H537.738V287.332H542.578V319.892ZM568.125 320.068H563.549V305.328C563.549 301.544 562.171 299.652 559.413 299.652C557.536 299.652 556.113 300.4 555.145 301.896C554.353 303.187 553.957 304.844 553.957 306.868V320.068H549.381V302.16C549.381 301.016 549.352 299.945 549.293 298.948C549.264 297.921 549.22 296.953 549.161 296.044H553.561V298.464C554.999 296.499 557.125 295.516 559.941 295.516C565.397 295.516 568.125 298.552 568.125 304.624V320.068ZM586.757 319.892C585.642 320.361 584.381 320.596 582.973 320.596C580.186 320.596 578.382 319.848 577.561 318.352C576.945 317.355 576.637 315.433 576.637 312.588V300.136H572.853V295.78H576.637V290.544L581.389 289.004V295.78H586.053V300.136H581.389V313.82C581.389 315.521 582.166 316.372 583.721 316.372C584.748 316.372 585.642 316.181 586.405 315.8L586.757 319.892ZM609.033 309.728H594.205C594.293 311.84 594.865 313.483 595.921 314.656C597.007 315.917 598.503 316.548 600.409 316.548C603.049 316.548 605.381 315.976 607.405 314.832V319.276C605.059 320.156 602.683 320.596 600.277 320.596C596.493 320.596 593.677 319.393 591.829 316.988C590.216 314.847 589.409 311.855 589.409 308.012C589.409 304.316 590.304 301.309 592.093 298.992C593.883 296.675 596.288 295.516 599.309 295.516C602.683 295.516 605.205 296.719 606.877 299.124C608.315 301.177 609.033 303.891 609.033 307.264V309.728ZM604.237 305.548C604.237 303.905 603.812 302.527 602.961 301.412C602.081 300.239 600.923 299.652 599.485 299.652C598.019 299.652 596.772 300.253 595.745 301.456C594.719 302.659 594.205 304.023 594.205 305.548H604.237ZM618.754 319.892H613.958V284.868H618.754V319.892ZM629.314 319.892H624.518V284.868H629.314V319.892ZM640.05 320.068H635.342V295.428H640.05V320.068ZM640.05 291.204H635.342V285.704H640.05V291.204ZM655.704 299.872C651.978 299.872 650.116 302.468 650.116 307.66C650.116 312.471 651.92 314.876 655.528 314.876C657.464 314.876 658.93 314.201 659.928 312.852C660.837 311.591 661.292 309.86 661.292 307.66C661.292 304.903 660.837 302.923 659.928 301.72C659.048 300.488 657.64 299.872 655.704 299.872ZM665.736 296.132V314.964C665.736 322.561 662.04 326.36 654.648 326.36C651.92 326.36 649.441 325.92 647.212 325.04L647.608 320.552C649.778 321.637 652.14 322.18 654.692 322.18C658.886 322.18 661.057 320.332 661.204 316.636L661.248 316.416C659.957 318.235 658.05 319.144 655.528 319.144C652.096 319.144 649.47 317.883 647.652 315.36C646.126 313.277 645.364 310.667 645.364 307.528C645.364 303.803 646.17 300.913 647.784 298.86C649.514 296.689 652.008 295.604 655.264 295.604C657.933 295.604 659.942 296.279 661.292 297.628V296.132H665.736ZM690.923 309.728H676.095C676.183 311.84 676.755 313.483 677.811 314.656C678.897 315.917 680.393 316.548 682.299 316.548C684.939 316.548 687.271 315.976 689.295 314.832V319.276C686.949 320.156 684.573 320.596 682.167 320.596C678.383 320.596 675.567 319.393 673.719 316.988C672.106 314.847 671.299 311.855 671.299 308.012C671.299 304.316 672.194 301.309 673.983 298.992C675.773 296.675 678.178 295.516 681.199 295.516C684.573 295.516 687.095 296.719 688.767 299.124C690.205 301.177 690.923 303.891 690.923 307.264V309.728ZM686.127 305.548C686.127 303.905 685.702 302.527 684.851 301.412C683.971 300.239 682.813 299.652 681.375 299.652C679.909 299.652 678.662 300.253 677.635 301.456C676.609 302.659 676.095 304.023 676.095 305.548H686.127ZM715.34 320.068H710.764V305.328C710.764 301.544 709.385 299.652 706.628 299.652C704.75 299.652 703.328 300.4 702.36 301.896C701.568 303.187 701.172 304.844 701.172 306.868V320.068H696.596V302.16C696.596 301.016 696.566 299.945 696.508 298.948C696.478 297.921 696.434 296.953 696.376 296.044H700.776V298.464C702.213 296.499 704.34 295.516 707.156 295.516C712.612 295.516 715.34 298.552 715.34 304.624V320.068ZM733.971 319.892C732.857 320.361 731.595 320.596 730.187 320.596C727.401 320.596 725.597 319.848 724.775 318.352C724.159 317.355 723.851 315.433 723.851 312.588V300.136H720.067V295.78H723.851V290.544L728.603 289.004V295.78H733.267V300.136H728.603V313.82C728.603 315.521 729.381 316.372 730.935 316.372C731.962 316.372 732.857 316.181 733.619 315.8L733.971 319.892ZM784.112 320.068H779.404V294.68L769.416 319.848H765.544L755.204 294.68V320.068H750.452V287.244H756.788L767.436 313.336L777.776 287.244H784.112V320.068ZM804.781 320.112V317.78C803.343 319.657 801.275 320.596 798.577 320.596C795.643 320.596 793.473 319.775 792.065 318.132C791.067 316.929 790.569 315.463 790.569 313.732C790.569 307.748 794.969 304.756 803.769 304.756H804.429V303.964C804.429 301.089 803.094 299.652 800.425 299.652C798.019 299.652 795.643 300.283 793.297 301.544V297.232C795.526 296.088 797.99 295.516 800.689 295.516C803.505 295.516 805.558 296.176 806.849 297.496C808.227 298.933 808.917 301.163 808.917 304.184V314.436C808.917 317.135 809.005 319.027 809.181 320.112H804.781ZM804.429 308.848H803.505C801.217 308.848 799.457 309.053 798.225 309.464C796.259 310.109 795.277 311.385 795.277 313.292C795.277 315.404 796.494 316.46 798.929 316.46C802.595 316.46 804.429 314.231 804.429 309.772V308.848ZM827.041 300.4C826.66 300.341 826.308 300.297 825.985 300.268C825.663 300.209 825.34 300.18 825.017 300.18C823.316 300.18 822.055 301.016 821.233 302.688C820.471 304.155 820.089 305.973 820.089 308.144V320.068H815.381V301.94C815.381 300.825 815.352 299.784 815.293 298.816C815.264 297.819 815.22 296.895 815.161 296.044H819.913V298.992C821.263 296.675 822.979 295.516 825.061 295.516C825.707 295.516 826.367 295.604 827.041 295.78V300.4ZM851.606 319.892H845.446L835.942 309.728V319.892H831.234V284.868H835.942V303.524L844.434 295.516H850.506L838.89 306.472L851.606 319.892ZM873.845 309.728H859.017C859.105 311.84 859.677 313.483 860.733 314.656C861.818 315.917 863.314 316.548 865.221 316.548C867.861 316.548 870.193 315.976 872.217 314.832V319.276C869.87 320.156 867.494 320.596 865.089 320.596C861.305 320.596 858.489 319.393 856.641 316.988C855.027 314.847 854.221 311.855 854.221 308.012C854.221 304.316 855.115 301.309 856.905 298.992C858.694 296.675 861.099 295.516 864.121 295.516C867.494 295.516 870.017 296.719 871.689 299.124C873.126 301.177 873.845 303.891 873.845 307.264V309.728ZM869.049 305.548C869.049 303.905 868.623 302.527 867.773 301.412C866.893 300.239 865.734 299.652 864.297 299.652C862.83 299.652 861.583 300.253 860.557 301.456C859.53 302.659 859.017 304.023 859.017 305.548H869.049ZM890.649 319.892C889.534 320.361 888.273 320.596 886.865 320.596C884.078 320.596 882.274 319.848 881.453 318.352C880.837 317.355 880.529 315.433 880.529 312.588V300.136H876.745V295.78H880.529V290.544L885.281 289.004V295.78H889.945V300.136H885.281V313.82C885.281 315.521 886.058 316.372 887.613 316.372C888.64 316.372 889.534 316.181 890.297 315.8L890.649 319.892ZM911.97 302.248H913.07C915.71 302.248 917.572 301.925 918.658 301.28C920.036 300.488 920.726 299.036 920.726 296.924C920.726 293.463 919.098 291.732 915.842 291.732H911.97V302.248ZM907.174 287.244H915.446C918.672 287.244 921.136 288.051 922.838 289.664C924.656 291.307 925.566 293.727 925.566 296.924C925.566 299.975 924.568 302.409 922.574 304.228C920.667 305.9 918.188 306.736 915.138 306.736H911.97V320.068H907.174V287.244ZM941.534 300.4C941.153 300.341 940.801 300.297 940.478 300.268C940.155 300.209 939.833 300.18 939.51 300.18C937.809 300.18 936.547 301.016 935.726 302.688C934.963 304.155 934.582 305.973 934.582 308.144V320.068H929.874V301.94C929.874 300.825 929.845 299.784 929.786 298.816C929.757 297.819 929.713 296.895 929.654 296.044H934.406V298.992C935.755 296.675 937.471 295.516 939.554 295.516C940.199 295.516 940.859 295.604 941.534 295.78V300.4ZM963.899 309.728H949.071C949.159 311.84 949.731 313.483 950.787 314.656C951.872 315.917 953.368 316.548 955.275 316.548C957.915 316.548 960.247 315.976 962.271 314.832V319.276C959.924 320.156 957.548 320.596 955.143 320.596C951.359 320.596 948.543 319.393 946.695 316.988C945.081 314.847 944.275 311.855 944.275 308.012C944.275 304.316 945.169 301.309 946.959 298.992C948.748 296.675 951.153 295.516 954.175 295.516C957.548 295.516 960.071 296.719 961.743 299.124C963.18 301.177 963.899 303.891 963.899 307.264V309.728ZM959.103 305.548C959.103 303.905 958.677 302.527 957.827 301.412C956.947 300.239 955.788 299.652 954.351 299.652C952.884 299.652 951.637 300.253 950.611 301.456C949.584 302.659 949.071 304.023 949.071 305.548H959.103ZM978.503 299.3C976.508 299.3 975.027 300.195 974.059 301.984C973.238 303.451 972.827 305.445 972.827 307.968C972.827 313.571 974.719 316.372 978.503 316.372C980.322 316.372 981.759 315.463 982.815 313.644C983.666 312.089 984.091 310.153 984.091 307.836C984.091 305.519 983.666 303.583 982.815 302.028C981.788 300.209 980.351 299.3 978.503 299.3ZM988.535 320.112H984.091V317.912C982.624 319.731 980.615 320.64 978.063 320.64C974.866 320.64 972.387 319.452 970.627 317.076C968.984 314.759 968.163 311.723 968.163 307.968C968.163 304.096 968.926 301.045 970.451 298.816C972.123 296.323 974.66 295.076 978.063 295.076C980.41 295.076 982.419 296.044 984.091 297.98V284.78H988.535V320.112ZM1000.04 320.068H995.331V295.428H1000.04V320.068ZM1000.04 291.204H995.331V285.704H1000.04V291.204ZM1022.69 319.672C1021.05 320.2 1018.95 320.464 1016.4 320.464C1012.79 320.464 1009.94 319.203 1007.86 316.68C1005.98 314.421 1005.04 311.532 1005.04 308.012C1005.04 304.404 1006.13 301.427 1008.3 299.08C1010.5 296.763 1013.27 295.604 1016.62 295.604C1018.85 295.604 1020.87 295.912 1022.69 296.528L1022.34 300.796C1020.61 300.092 1018.8 299.74 1016.92 299.74C1014.64 299.74 1012.85 300.503 1011.56 302.028C1010.3 303.524 1009.66 305.519 1009.66 308.012C1009.66 310.359 1010.31 312.339 1011.6 313.952C1012.86 315.536 1014.53 316.328 1016.62 316.328C1018.52 316.328 1020.43 315.976 1022.34 315.272L1022.69 319.672ZM1038.81 319.892C1037.69 320.361 1036.43 320.596 1035.02 320.596C1032.24 320.596 1030.43 319.848 1029.61 318.352C1029 317.355 1028.69 315.433 1028.69 312.588V300.136H1024.9V295.78H1028.69V290.544L1033.44 289.004V295.78H1038.1V300.136H1033.44V313.82C1033.44 315.521 1034.22 316.372 1035.77 316.372C1036.8 316.372 1037.69 316.181 1038.46 315.8L1038.81 319.892ZM1047.45 320.068H1042.74V295.428H1047.45V320.068ZM1047.45 291.204H1042.74V285.704H1047.45V291.204ZM1063.58 299.652C1061.59 299.652 1060 300.444 1058.83 302.028C1057.72 303.583 1057.16 305.592 1057.16 308.056C1057.16 310.52 1057.72 312.529 1058.83 314.084C1060 315.668 1061.59 316.46 1063.58 316.46C1065.58 316.46 1067.15 315.668 1068.29 314.084C1069.43 312.559 1070.01 310.549 1070.01 308.056C1070.01 305.592 1069.43 303.583 1068.29 302.028C1067.15 300.444 1065.58 299.652 1063.58 299.652ZM1063.58 295.516C1067.22 295.516 1070.05 296.821 1072.07 299.432C1073.89 301.749 1074.8 304.624 1074.8 308.056C1074.8 311.488 1073.89 314.363 1072.07 316.68C1070.05 319.291 1067.22 320.596 1063.58 320.596C1059.92 320.596 1057.07 319.291 1055.05 316.68C1053.26 314.421 1052.36 311.547 1052.36 308.056C1052.36 304.565 1053.26 301.691 1055.05 299.432C1057.07 296.821 1059.92 295.516 1063.58 295.516ZM1099.2 320.068H1094.62V305.328C1094.62 301.544 1093.24 299.652 1090.49 299.652C1088.61 299.652 1087.19 300.4 1086.22 301.896C1085.43 303.187 1085.03 304.844 1085.03 306.868V320.068H1080.45V302.16C1080.45 301.016 1080.43 299.945 1080.37 298.948C1080.34 297.921 1080.29 296.953 1080.23 296.044H1084.63V298.464C1086.07 296.499 1088.2 295.516 1091.01 295.516C1096.47 295.516 1099.2 298.552 1099.2 304.624V320.068Z" fill="#757575"/>
</g>
<defs>
<clipPath id="clip0_8_887">
<rect width="1230" height="416" fill="white"/>
</clipPath>
</defs>
</svg>
